<?xml version="1.0" standalone="no"?>
<!DOCTYPE svg PUBLIC "-//W3C//DTD SVG 20010904//EN"
 "http://www.w3.org/TR/2001/REC-SVG-20010904/DTD/svg10.dtd">
<svg version="1.0" xmlns="http://www.w3.org/2000/svg"
 width="4682.000000pt" height="5260.000000pt" viewBox="0 0 4682.000000 5260.000000"
 preserveAspectRatio="xMidYMid meet">
<metadata>
Created by potrace 1.16, written by Peter Selinger 2001-2019
</metadata>
<g transform="translate(0.000000,5260.000000) scale(0.100000,-0.100000)"
fill="#000000" stroke="none">
<path d="M41091 47720 c369 -439 661 -979 814 -1505 231 -797 202 -1712 -82
-2590 -172 -532 -443 -1054 -778 -1500 -176 -234 -263 -334 -487 -559 l-207
-208 -66 -395 c-55 -334 -88 -505 -167 -880 l-11 -52 120 -138 c588 -679 999
-1348 1301 -2118 266 -680 421 -1362 494 -2175 20 -225 17 -996 -5 -1230 -46
-487 -117 -903 -223 -1308 -77 -293 -188 -540 -333 -742 -26 -36 -71 -108
-100 -160 -45 -81 -59 -120 -97 -270 -134 -540 -376 -1062 -742 -1600 -282
-416 -605 -802 -823 -985 -96 -80 -227 -172 -324 -225 -37 -21 -113 -85 -200
-169 -378 -366 -878 -724 -1430 -1024 -145 -78 -443 -218 -647 -303 -64 -26
-115 -51 -113 -55 3 -3 64 -40 137 -82 103 -58 146 -76 188 -82 30 -4 132 -23
225 -42 94 -20 182 -38 197 -40 33 -6 263 99 477 219 554 309 1010 639 1394
1007 91 88 155 140 207 169 293 166 559 430 924 915 489 652 810 1300 955
1930 24 104 37 138 88 227 33 58 85 141 115 185 154 222 248 444 334 790 112
450 184 929 215 1420 17 275 6 900 -20 1165 -109 1104 -416 2085 -936 2990
-217 379 -574 867 -908 1243 l-59 66 41 190 c50 230 116 593 167 910 l37 234
197 196 c409 408 712 825 969 1330 285 562 452 1122 523 1756 18 161 18 739 0
900 -75 663 -319 1302 -714 1865 -171 243 -433 546 -627 726 l-75 69 55 -65z"/>
<path d="M27155 40701 c-17 -10 -95 -53 -175 -96 -80 -43 -208 -117 -285 -163
-640 -388 -976 -717 -1478 -1447 -64 -93 -110 -150 -138 -169 -71 -50 -228
-182 -372 -314 -285 -261 -639 -677 -784 -922 -312 -526 -491 -1015 -560
-1528 -12 -91 -17 -202 -17 -392 -1 -278 7 -378 51 -635 48 -287 179 -753 226
-803 63 -68 170 -71 238 -6 l26 25 32 -138 c70 -297 218 -695 362 -972 264
-510 536 -835 1118 -1336 250 -215 296 -251 390 -298 80 -40 89 -42 172 -42
103 0 129 14 167 88 24 45 24 47 12 169 -11 108 -18 448 -23 1172 l-2 209 95
69 c118 85 340 196 484 243 469 152 976 130 1410 -62 97 -42 102 -43 152 -33
104 22 156 77 162 174 6 89 -21 149 -74 166 -20 7 -127 57 -237 111 -319 156
-504 207 -792 216 -132 4 -191 1 -265 -11 -347 -61 -679 -280 -883 -584 -35
-50 -36 -51 -31 -20 60 452 131 776 217 988 278 685 656 1256 1091 1648 115
104 266 225 272 219 10 -10 -140 -462 -275 -835 -74 -200 -92 -263 -92 -306 0
-133 95 -229 226 -230 54 -1 73 5 169 54 294 147 628 416 849 682 234 283 413
636 484 956 10 45 21 82 25 82 4 0 40 -30 81 -66 239 -210 608 -461 989 -672
411 -228 1039 -510 1175 -527 139 -19 257 85 258 226 l0 55 175 -84 c860 -413
1524 -622 2133 -673 118 -10 156 -10 190 1 83 24 167 106 167 164 l1 31 21
-40 c74 -140 183 -444 241 -670 97 -378 140 -743 172 -1460 23 -515 38 -680
80 -892 30 -148 68 -254 136 -382 58 -109 69 -124 70 -95 0 10 6 59 13 107 8
55 9 111 4 150 -20 162 -7 264 72 577 150 593 410 1022 764 1257 82 55 147 73
272 73 303 0 587 -196 729 -503 101 -218 117 -515 49 -886 -84 -458 -295 -951
-556 -1294 -334 -440 -813 -665 -1138 -534 l-57 23 -11 -145 c-6 -80 -21 -201
-32 -268 -22 -128 -39 -169 -339 -821 -70 -153 -78 -204 -38 -262 40 -60 69
-74 145 -72 88 3 314 28 427 48 294 50 814 220 1222 400 682 300 1310 763
1658 1221 l69 92 57 -6 c91 -9 144 14 226 100 237 250 555 709 708 1023 159
325 232 603 242 925 l6 176 52 12 c69 16 125 58 160 123 25 46 30 66 33 151 3
63 8 97 16 97 73 0 164 73 195 155 51 136 140 610 177 935 22 198 30 779 15
1004 -69 980 -368 1895 -861 2632 -224 334 -476 639 -775 940 -185 186 -443
419 -453 410 -2 -3 -15 -38 -29 -78 -36 -110 -110 -252 -158 -306 -67 -74
-193 -128 -390 -166 -210 -40 -379 -54 -875 -71 -272 -10 -588 -29 -960 -59
-615 -50 -914 -71 -1219 -86 -263 -13 -953 -13 -1174 0 -1056 63 -2120 274
-3447 685 -445 138 -1787 596 -2035 695 -226 90 -424 208 -512 304 -93 101
-108 168 -74 316 12 51 21 94 19 96 -2 1 -17 -5 -33 -15z"/>
<path d="M32030 34473 c-90 -9 -262 -47 -358 -79 -242 -79 -427 -176 -687
-361 -82 -59 -174 -121 -205 -138 -52 -29 -56 -34 -78 -100 -55 -162 16 -231
201 -195 47 9 85 26 157 73 281 181 624 303 1015 359 139 20 506 17 630 -6
204 -37 390 -106 515 -191 36 -24 66 -42 68 -41 5 6 -29 90 -65 159 -44 85
-182 230 -282 297 -91 61 -271 145 -376 174 -164 47 -374 66 -535 49z"/>
<path d="M31998 32891 c-201 -64 -353 -253 -424 -526 -35 -133 -44 -354 -20
-497 50 -306 202 -569 406 -702 77 -50 109 -48 229 13 135 69 265 126 416 182
l130 47 27 64 c113 268 111 623 -5 913 -103 257 -289 451 -486 509 -73 21
-201 20 -273 -3z m286 -247 c145 -51 292 -221 361 -417 15 -43 26 -79 24 -81
-38 -29 -77 -56 -81 -56 -3 0 -9 16 -12 35 -4 19 -25 71 -47 115 -49 97 -130
184 -209 226 -49 26 -65 29 -145 29 -80 0 -95 -3 -137 -28 -26 -15 -50 -32
-53 -38 -4 -5 5 -27 19 -47 49 -71 60 -111 60 -212 0 -78 -4 -104 -23 -147
-27 -62 -85 -118 -135 -131 -39 -11 -52 -9 -143 19 -50 16 -62 25 -68 46 -3
14 -4 27 -1 30 2 3 -4 30 -15 60 -24 70 -26 202 -4 264 22 60 58 111 97 134
18 10 62 49 98 86 68 69 142 114 214 129 51 10 146 3 200 -16z m-316 -840 c94
-66 64 -264 -41 -264 -98 0 -139 179 -57 253 34 31 65 34 98 11z"/>
<path d="M21228 32195 c124 -164 937 -1475 1366 -2203 610 -1036 947 -1687
1076 -2080 223 -679 210 -1376 -39 -2106 l-31 -89 228 -301 c125 -166 472
-626 772 -1023 478 -633 547 -720 558 -705 38 50 106 -46 -1044 1473 l-103
136 34 99 c122 354 182 675 192 1029 11 388 -38 720 -161 1083 -63 186 -123
324 -277 632 -337 673 -897 1635 -1722 2955 -456 729 -447 716 -730 1000 -164
164 -174 173 -119 100z"/>
<path d="M27307 32259 c-206 -48 -380 -254 -454 -538 -34 -130 -42 -351 -19
-496 20 -122 74 -287 125 -380 37 -69 38 -70 92 -83 218 -50 288 -68 389 -99
63 -19 162 -52 219 -74 135 -50 168 -51 223 -1 57 51 131 167 169 265 97 252
99 582 3 849 -102 283 -291 487 -513 552 -59 17 -172 20 -234 5z m297 -277
c97 -45 206 -157 264 -270 38 -72 82 -181 82 -202 0 -9 -79 -65 -83 -59 -1 2
-11 30 -22 63 -44 134 -145 260 -251 312 -105 51 -246 37 -326 -34 -17 -14
-16 -17 12 -48 17 -20 39 -64 51 -105 40 -131 9 -269 -76 -348 -59 -54 -95
-59 -192 -29 -77 23 -78 24 -86 63 -5 22 -15 62 -23 89 -19 65 -18 201 2 259
18 52 85 134 117 143 12 3 39 27 59 54 40 51 122 111 185 134 24 9 70 14 128
13 79 -2 99 -6 159 -35z m-369 -814 c75 -34 94 -174 32 -242 -37 -42 -70 -43
-112 -4 -65 60 -68 167 -5 230 31 31 46 34 85 16z"/>
<path d="M19300 31134 c-299 -33 -541 -100 -840 -231 -292 -129 -464 -227
-924 -526 l-340 -222 -321 -281 c-176 -155 -383 -346 -460 -425 -422 -432
-684 -846 -756 -1194 -21 -102 -24 -210 -6 -242 14 -25 123 -147 542 -608
1210 -1330 2112 -2246 2450 -2488 107 -76 276 -153 407 -187 240 -60 471 -59
894 6 193 30 269 37 394 38 198 1 196 2 400 -203 154 -154 172 -178 1494
-1929 737 -975 1342 -1771 1346 -1770 4 2 47 40 96 85 49 45 134 118 188 162
94 74 106 81 218 116 65 20 189 54 275 76 86 22 159 41 161 43 2 3 -621 831
-1385 1841 -763 1009 -1416 1882 -1451 1938 -35 56 -89 153 -120 216 -55 110
-57 116 -56 190 2 92 27 172 120 379 185 410 235 542 276 724 20 88 23 130 23
293 -1 217 -13 285 -87 473 -144 371 -694 1343 -1501 2653 -466 758 -623 1003
-656 1025 -17 12 -59 27 -93 32 -73 13 -237 22 -288 16z m-3178 -2901 c34 -26
142 -129 238 -228 96 -99 222 -225 280 -280 206 -195 389 -383 585 -600 110
-121 359 -382 555 -580 382 -386 529 -548 676 -745 92 -121 106 -154 82 -178
-21 -21 -38 -14 -111 47 -326 266 -663 600 -1147 1136 -123 137 -314 341 -424
454 -274 283 -389 413 -492 555 -167 230 -229 310 -287 373 -50 53 -57 66 -47
78 18 21 21 20 92 -32z"/>
<path d="M31835 29629 c-97 -13 -215 -42 -312 -77 -63 -22 -83 -26 -83 -15 0
35 -132 44 -253 17 -158 -36 -365 -152 -511 -285 l-69 -64 8 40 c4 22 8 58 9
80 1 38 -1 40 -31 43 -21 2 -33 9 -33 18 0 20 -53 18 -98 -3 -47 -22 -157
-132 -212 -213 -37 -54 -93 -164 -114 -223 -5 -16 -16 -9 -77 47 -39 36 -96
78 -127 94 -31 15 -91 52 -132 81 -106 75 -146 94 -169 82 -21 -12 -35 -54
-26 -82 5 -14 -13 -5 -60 31 -69 52 -154 100 -178 100 -20 0 -47 -33 -47 -57
0 -11 15 -54 34 -94 19 -41 33 -75 32 -76 -2 -2 -32 9 -67 23 -195 80 -463 85
-590 12 -24 -14 -105 -60 -179 -103 -74 -43 -153 -91 -175 -108 -48 -36 -145
-129 -145 -138 0 -33 650 -193 1029 -254 170 -27 420 -37 627 -25 922 52 1793
279 2579 673 192 95 250 132 322 200 90 85 105 137 54 180 -38 32 -82 42 -321
73 -218 28 -565 40 -685 23z"/>
<path d="M32022 28922 c-40 -21 -70 -40 -67 -43 8 -8 -47 -125 -105 -223 -65
-109 -136 -204 -239 -316 -81 -88 -87 -93 -231 -164 -230 -114 -477 -188 -724
-217 -140 -16 -424 -6 -544 20 -262 56 -464 156 -652 321 l-82 73 -91 13 c-50
8 -92 12 -94 10 -2 -1 23 -20 54 -41 32 -21 131 -94 221 -163 339 -257 577
-382 819 -428 109 -20 359 -15 473 11 452 100 841 381 1140 825 57 83 210 341
210 352 0 13 -10 9 -88 -30z"/>
<path d="M26425 26410 c174 -176 445 -417 557 -496 l36 -25 41 27 c23 14 41
30 41 33 0 4 -15 15 -32 26 -152 87 -479 323 -668 480 l-105 87 130 -132z"/>
<path d="M39791 25990 c524 -608 896 -1404 1114 -2385 96 -431 157 -876 197
-1440 17 -243 17 -1241 0 -1510 -41 -628 -100 -1157 -193 -1715 l-41 -245 18
-115 c26 -158 26 -521 0 -660 -86 -467 -275 -901 -544 -1250 l-65 -85 47 -630
c25 -346 46 -643 46 -659 0 -18 19 -58 49 -105 123 -192 202 -384 296 -718
146 -518 192 -679 351 -1218 292 -990 380 -1284 634 -2120 137 -451 286 -946
332 -1100 l84 -280 50 -25 c84 -42 207 -108 251 -135 l42 -26 -16 53 c-8 29
-78 260 -155 513 -77 253 -215 710 -308 1015 -279 922 -650 2184 -850 2895
-93 331 -166 511 -284 698 -45 72 -56 98 -61 145 -3 31 -26 332 -51 669 l-45
612 86 116 c228 305 386 643 484 1030 71 280 84 602 36 864 l-17 89 31 178
c108 634 178 1269 212 1924 15 290 15 996 0 1260 -67 1183 -285 2138 -670
2935 -252 520 -504 872 -937 1310 -103 105 -159 156 -123 115z"/>
<path d="M35727 25958 c-187 -197 -404 -609 -610 -1158 -139 -371 -238 -674
-488 -1485 -94 -302 -209 -671 -256 -820 -201 -633 -400 -1145 -491 -1265
-204 -270 -721 -479 -1407 -569 -304 -40 -420 -46 -845 -45 -507 0 -724 19
-1100 94 -465 93 -745 233 -810 407 -60 160 -110 417 -131 668 -15 188 -7 670
15 895 70 710 230 1502 507 2507 45 163 47 191 19 221 -47 50 -61 43 -468
-234 -208 -140 -387 -266 -399 -279 -12 -13 -26 -48 -32 -77 -232 -1124 -521
-2816 -715 -4178 -84 -594 -196 -1451 -190 -1459 8 -10 920 -162 1144 -191 91
-11 291 -27 445 -35 618 -32 1354 -123 2090 -260 867 -161 2087 -432 2606
-581 86 -24 161 -44 167 -44 11 0 122 209 122 228 0 5 -55 44 -122 88 -368
237 -629 476 -768 703 -32 52 -34 59 -33 145 2 184 102 388 284 581 32 34 42
56 63 140 61 241 258 956 287 1045 7 19 15 49 19 65 24 98 249 810 363 1150
161 476 338 961 418 1142 11 24 19 45 19 47 0 6 134 325 162 386 11 25 47 103
80 174 140 305 329 653 469 863 197 296 406 511 578 598 l54 27 -24 23 c-13
12 -224 136 -468 274 -344 194 -453 251 -479 251 -28 0 -43 -8 -75 -42z"/>
<path d="M17205 23634 c305 -300 597 -555 788 -688 416 -289 851 -459 1377
-537 146 -22 681 -40 679 -23 0 5 -69 99 -152 209 l-152 200 -220 -3 c-585 -9
-1056 89 -1530 318 -294 142 -528 306 -855 598 -81 72 -66 55 65 -74z"/>
<path d="M25367 18504 l-27 -15 107 -157 c59 -86 119 -173 133 -193 17 -25 40
-41 75 -54 119 -41 245 -143 286 -231 27 -57 32 -160 10 -210 -15 -33 -23 -19
266 -456 69 -105 171 -180 287 -213 86 -25 245 -16 345 19 132 46 244 121 334
221 46 52 130 175 123 182 -2 2 -43 14 -92 28 -150 40 -292 95 -464 181 -207
103 -311 169 -442 279 -169 143 -357 279 -558 405 -47 29 -96 62 -110 72 -14
10 -57 43 -97 73 -71 53 -124 85 -140 85 -4 -1 -20 -8 -36 -16z"/>
<path d="M28127 17298 c-16 -150 -58 -702 -81 -1048 -52 -775 -72 -1252 -88
-2103 -19 -1073 8 -2506 78 -4062 8 -192 18 -391 22 -442 l7 -91 76 29 76 29
-4 160 -4 160 406 0 406 -1 142 64 c165 75 262 108 303 105 16 -1 72 15 124
35 52 20 152 56 221 81 69 25 210 82 315 127 104 45 287 121 408 170 169 68
221 93 230 111 7 15 58 47 156 95 167 83 230 104 261 85 16 -10 31 -9 78 3 67
17 167 20 176 5 3 -5 33 -10 65 -10 32 0 65 -3 74 -6 30 -11 18 -50 -29 -93
-49 -45 -52 -51 -31 -51 7 0 19 -6 26 -14 18 -22 -52 -92 -176 -176 -150 -102
-194 -122 -258 -118 -49 3 -56 0 -121 -48 -82 -59 -131 -89 -164 -99 -13 -4
-77 -41 -143 -84 -132 -84 -128 -82 -212 -130 -53 -31 -57 -35 -38 -42 25 -9
99 -3 135 10 14 6 28 7 31 4 3 -4 6 -2 6 4 0 6 7 14 16 17 9 4 13 2 8 -5 -4
-7 -1 -10 7 -7 8 3 13 10 12 16 -1 5 7 12 18 15 17 5 18 3 8 -11 -7 -9 2 -3
21 15 31 27 110 63 142 63 5 0 8 -10 6 -23 -4 -22 -3 -23 41 -15 25 4 104 27
175 52 70 24 189 59 263 78 114 28 137 36 144 55 4 12 21 29 38 37 30 16 182
46 231 46 14 0 58 11 97 24 121 41 428 81 490 64 19 -5 33 -15 33 -24 0 -16
-31 -50 -68 -74 l-23 -15 58 -85 c67 -99 295 -330 324 -330 11 0 32 8 46 18
15 9 24 11 20 5 -11 -17 -2 -16 16 2 8 8 21 16 28 17 8 2 18 9 24 16 6 7 26
14 46 16 19 2 82 19 139 39 152 51 279 84 413 107 127 21 197 26 182 11 -6 -5
-93 -34 -195 -66 -215 -66 -276 -90 -345 -133 l-50 -32 173 0 174 0 -30 -30
c-40 -40 -60 -96 -71 -208 -12 -115 -36 -169 -125 -281 -84 -106 -101 -137
-85 -157 18 -22 38 -17 97 27 116 88 225 221 348 423 52 85 94 209 94 274 l0
32 529 0 c343 0 532 -4 536 -10 3 -5 22 -10 40 -10 26 0 33 -3 29 -15 -4 -8
-10 -15 -16 -15 -5 0 -6 5 -3 10 3 6 -2 10 -11 10 -15 0 -15 -3 5 -24 17 -18
32 -23 66 -23 36 0 43 3 34 13 -8 9 -6 12 8 9 10 -1 17 -8 15 -14 -1 -6 7 -11
17 -11 11 0 22 -9 26 -19 13 -41 29 -43 106 -10 45 18 92 30 121 30 31 1 48 6
52 16 3 8 10 11 16 8 6 -4 8 -10 5 -15 -5 -8 256 -5 305 4 14 2 43 5 64 5 43
1 45 10 3 13 -14 1 -24 5 -21 9 3 6 47 4 122 -6 24 -3 32 0 32 11 0 8 -4 13
-8 10 -5 -3 -9 1 -9 9 0 24 14 17 25 -12 6 -16 22 -73 37 -127 33 -127 125
-315 208 -426 115 -152 283 -299 445 -387 34 -19 62 -38 62 -42 0 -12 -330
-241 -346 -241 -3 0 -27 -15 -53 -34 -25 -18 -66 -45 -91 -59 -25 -14 -59 -39
-75 -55 -34 -33 -119 -86 -156 -97 -13 -4 -145 -67 -294 -140 -148 -74 -310
-151 -360 -173 -49 -22 -125 -56 -167 -76 l-77 -36 -2605 0 -2604 0 -79 41
c-346 183 -661 387 -913 593 -118 97 -147 116 -172 116 -13 1 -40 7 -61 14
-36 13 -41 12 -127 -30 l-90 -43 0 -43 c0 -24 9 -178 19 -343 11 -165 17 -303
14 -307 -2 -5 -1264 -8 -2804 -8 l-2799 0 0 265 c0 278 -5 313 -45 329 -9 3
-1811 6 -4005 6 -3974 0 -3989 0 -4035 -20 l-47 -20 -33 20 c-30 19 -48 20
-311 19 l-279 -1 48 -20 c26 -11 47 -24 47 -29 0 -5 -105 -9 -234 -9 l-234 0
-57 30 c-56 30 -59 30 -213 30 l-155 0 21 -23 c12 -13 19 -27 15 -30 -3 -4
-37 -7 -75 -7 -66 0 -70 1 -86 30 l-17 30 -241 0 -242 0 -12 -31 c-11 -27 -17
-30 -49 -27 -33 3 -36 6 -33 31 l3 27 -161 0 -160 0 0 -30 0 -30 -197 2 -198
3 -3 28 -3 27 -359 0 c-337 0 -361 -1 -405 -20 l-47 -20 -33 20 c-31 19 -47
20 -311 18 l-279 -3 52 -19 c29 -11 50 -23 47 -28 -3 -4 -110 -8 -237 -8 -205
0 -237 3 -273 19 -23 10 -45 24 -48 30 -5 7 -63 11 -173 11 l-166 0 21 -23
c12 -13 19 -27 15 -30 -3 -4 -37 -7 -74 -7 -65 0 -69 1 -86 30 l-17 30 -242 0
-242 0 -11 -31 c-9 -27 -14 -30 -48 -27 -35 3 -38 5 -35 31 l3 28 -158 -3
-158 -3 -3 -27 -3 -28 -194 0 -193 0 -7 30 -7 30 -569 0 -570 0 -24 -25 -25
-24 0 -276 0 -275 -1790 0 -1791 0 -24 -25 -25 -24 0 -1199 0 -1199 23 -21 23
-22 19152 0 c19139 0 19152 0 19172 20 20 20 20 33 20 1224 l0 1205 -26 20
c-26 20 -37 21 -399 21 l-372 0 -132 463 c-157 546 -312 1064 -656 2197 -252
831 -321 1062 -515 1720 -56 190 -148 504 -206 698 -57 194 -144 498 -194 675
-115 414 -107 385 -126 415 -10 15 -90 107 -179 207 -512 572 -1179 1350
-1524 1778 l-103 128 -111 -108 c-335 -323 -689 -521 -1072 -598 -229 -46
-396 -58 -765 -52 -354 6 -460 14 -935 73 -276 34 -308 40 -660 129 -1898 479
-4157 1162 -5120 1547 -110 44 -205 82 -211 85 -7 2 -13 -19 -17 -59z m7097
-5279 c53 -107 70 -197 63 -353 -6 -148 -27 -236 -81 -345 -37 -73 -109 -158
-170 -203 -66 -47 -72 -32 -12 32 144 156 217 366 203 588 -7 114 -42 260 -86
356 -17 38 -31 72 -31 75 2 18 85 -91 114 -150z m-1742 -13 c21 -33 50 -96 65
-140 24 -72 27 -97 27 -226 1 -171 -14 -239 -79 -375 -48 -101 -124 -189 -193
-224 -22 -11 -43 -21 -45 -21 -2 0 16 21 40 48 147 158 216 334 215 552 0 159
-23 259 -107 465 l-8 20 23 -20 c13 -11 40 -47 62 -79z m578 -573 c0 -10 -8
-31 -18 -48 -10 -16 -31 -64 -47 -105 -38 -100 -91 -151 -109 -104 -16 41 25
121 112 220 50 57 62 64 62 37z m-1710 -62 c0 -5 -16 -44 -36 -87 -19 -44 -44
-98 -54 -121 -20 -44 -61 -79 -80 -68 -18 11 -11 60 18 113 49 91 152 202 152
163z m510 -145 c0 -21 -92 -135 -168 -208 -38 -38 -67 -68 -62 -68 4 0 52 20
106 44 55 24 114 47 132 51 71 15 31 -54 -119 -207 -142 -144 -187 -178 -230
-178 -74 0 -115 92 -75 168 6 12 33 38 59 56 46 33 47 34 22 40 -14 4 -41 22
-60 40 -41 40 -47 84 -14 114 26 25 231 131 283 148 57 18 126 18 126 0z
m-380 -36 c0 -45 -163 -262 -227 -302 -34 -22 -113 -23 -152 -4 -30 16 -61 56
-61 79 0 28 66 74 223 153 149 77 217 100 217 74z m1383 -347 c-5 -137 -3
-183 11 -253 20 -97 83 -240 149 -333 23 -34 46 -68 50 -74 6 -10 -8 -13 -60
-13 l-69 0 -36 68 c-84 157 -124 327 -115 492 7 127 47 280 73 280 2 0 1 -75
-3 -167z m4286 -363 c45 -70 67 -141 51 -170 -16 -29 -65 -53 -78 -37 -14 17
-92 198 -92 214 0 20 37 53 60 53 14 0 33 -19 59 -60z m96 -332 c67 -219 6
-522 -149 -743 -50 -70 -159 -196 -208 -239 -97 -85 -228 -166 -228 -141 0 3
51 56 113 118 148 147 257 311 320 482 51 137 61 199 62 371 0 145 2 164 19
183 33 36 53 27 71 -31z m-15905 -1923 l0 -215 -7730 0 -7730 0 0 215 0 215
7730 0 7730 0 0 -215z m19020 -669 l0 -365 -47 -3 -48 -3 -3 -407 -2 -408
-19005 0 -19005 0 -2 408 -3 407 -47 3 -48 3 0 365 0 364 19105 0 19105 0 0
-364z"/>
<path d="M9482 16910 c10 -14 45 -65 78 -115 67 -99 187 -337 245 -485 21 -52
40 -98 44 -102 3 -4 52 1 108 10 l102 18 -55 88 c-87 141 -172 242 -362 433
-97 98 -169 167 -160 153z"/>
<path d="M7924 16248 l-109 -212 114 -111 113 -110 94 0 94 0 145 217 145 218
-38 24 c-79 49 -222 116 -325 150 -59 20 -111 36 -115 36 -5 0 -58 -95 -118
-212z"/>
<path d="M8390 16031 c-77 -116 -140 -213 -140 -216 0 -3 17 -5 38 -5 37 0 37
0 91 105 78 152 58 141 189 100 86 -27 112 -40 108 -51 -3 -7 -27 -47 -54 -86
-60 -90 -65 -98 -58 -98 3 0 33 41 66 90 37 56 67 90 78 90 9 0 54 -20 100
-45 45 -24 82 -41 82 -38 0 13 -87 121 -149 187 -57 59 -161 148 -198 170 -8
4 -60 -64 -153 -203z"/>
<path d="M7664 14985 c-21 -55 46 -155 104 -155 40 0 58 20 77 82 8 28 22 60
32 70 31 34 4 18 -30 -19 -27 -27 -43 -36 -68 -36 -25 0 -40 8 -64 36 -36 41
-43 44 -51 22z"/>
<path d="M6557 14453 c-131 -339 -185 -647 -174 -1007 10 -371 95 -695 282
-1084 49 -101 70 -154 62 -157 -7 -3 -72 -22 -145 -43 -96 -29 -135 -36 -142
-28 -13 17 -73 160 -99 239 -13 37 -40 136 -61 220 -22 83 -39 147 -40 141 0
-6 5 -60 11 -120 11 -114 64 -295 127 -435 l30 -66 -292 -97 c-709 -236 -1149
-449 -1348 -653 -67 -69 -100 -128 -105 -192 -4 -38 1 -57 27 -106 20 -37 51
-131 81 -247 159 -610 320 -1091 455 -1363 101 -203 164 -266 359 -360 297
-144 715 -239 1285 -290 198 -17 604 -35 827 -35 l161 0 -13 48 c-56 206 -199
361 -385 416 -46 14 -270 46 -319 46 -34 0 8 19 63 29 155 28 526 1 677 -49
195 -66 325 -206 375 -404 l17 -69 166 8 c91 3 170 11 175 16 9 8 -6 194 -19
235 -10 28 74 -65 96 -107 10 -20 23 -57 30 -83 11 -45 13 -46 43 -42 17 3 67
8 111 11 44 3 104 8 133 12 l54 6 -7 31 c-3 17 -9 42 -12 56 -4 14 -6 63 -5
110 2 172 71 349 182 463 36 37 71 67 76 67 6 0 -8 -48 -32 -107 -63 -157 -87
-266 -88 -398 -1 -103 5 -160 19 -198 5 -11 16 -14 38 -11 18 2 97 11 177 20
80 9 146 16 146 17 1 1 9 38 18 82 21 102 63 191 116 249 38 41 72 63 55 36
-3 -5 -10 -37 -16 -70 -16 -98 21 -270 57 -270 51 0 951 133 1012 150 30 8
159 107 210 163 l23 25 -68 6 c-143 14 -174 19 -166 26 13 13 135 30 211 30
l71 0 23 40 c13 22 27 40 31 40 5 0 15 -17 24 -38 l15 -39 103 -11 c140 -15
246 -38 313 -68 l56 -25 100 20 c56 11 112 23 126 25 103 20 559 126 760 176
194 49 252 67 280 89 56 44 63 47 55 22 -3 -11 -3 -21 1 -21 20 0 419 121 624
190 1119 372 1851 819 2073 1265 52 103 57 130 68 355 6 113 14 208 18 212 4
5 288 89 631 189 344 99 630 186 635 193 16 21 47 34 97 41 47 7 49 6 103 -44
31 -28 86 -65 123 -83 61 -30 76 -33 157 -32 129 0 181 15 308 90 34 20 96 48
137 61 41 14 103 38 138 54 l63 28 -7 48 c-8 64 12 312 31 388 38 145 129 281
219 325 79 38 186 18 269 -52 l29 -24 59 30 c44 21 78 30 133 34 80 5 118 -4
208 -49 57 -28 58 -28 100 -12 30 12 77 17 158 17 103 1 121 -2 179 -26 l65
-27 51 48 c84 80 169 88 355 34 47 -13 113 -40 148 -59 43 -23 64 -30 67 -21
2 6 14 44 26 82 28 86 29 163 4 267 l-18 77 -41 -28 c-161 -111 -473 -208
-768 -240 -227 -25 -586 -8 -845 39 -278 51 -405 15 -748 -210 -197 -129 -324
-194 -555 -283 -294 -113 -479 -152 -687 -144 -161 5 -205 17 -251 63 -33 33
-34 37 -29 85 6 51 6 51 -19 45 -14 -4 -134 -38 -265 -76 -132 -39 -242 -70
-245 -70 -3 0 -2 84 2 188 5 135 11 195 22 217 24 48 19 126 -11 178 -100 170
-456 272 -1147 329 -207 17 -1248 17 -1545 0 -1154 -66 -2229 -186 -3390 -377
-307 -50 -936 -163 -941 -168 -17 -16 -50 -75 -41 -72 28 9 536 101 889 160
564 94 1096 169 1770 250 l46 5 -5 -38 c-4 -33 -1 -42 19 -58 l25 -19 -191
-23 c-1387 -166 -2927 -442 -4076 -733 -129 -33 -242 -62 -251 -65 -12 -3 -25
9 -44 41 -15 26 -25 48 -23 51 7 6 319 89 583 154 200 49 536 125 912 206 71
16 73 17 67 42 -4 15 -8 29 -10 31 -10 12 -1013 -219 -1397 -323 l-197 -53
-24 41 c-121 208 -242 536 -296 800 -72 355 -70 750 6 1081 76 331 93 409 90
412 -2 2 -24 -50 -49 -114z m8033 -1293 c761 -55 1150 -178 1150 -363 0 -123
-168 -265 -522 -442 -1013 -505 -3214 -1037 -5558 -1344 -774 -101 -1507 -170
-2275 -213 -310 -17 -1336 -17 -1550 0 -669 54 -1029 155 -1096 307 -32 72 -6
137 93 231 163 157 506 332 1011 518 206 76 586 201 591 195 13 -18 46 -82 46
-89 0 -5 -15 -12 -32 -15 -69 -15 -540 -175 -688 -234 -373 -149 -620 -301
-660 -407 -48 -125 77 -216 374 -273 257 -50 641 -72 1261 -74 417 -1 588 5
1135 44 1848 128 4059 495 5695 944 344 95 365 101 341 106 -10 2 26 17 80 33
368 109 748 249 979 361 175 86 260 140 332 211 215 214 -69 357 -802 404
-344 22 -1046 11 -1605 -25 -427 -28 -1137 -92 -1345 -121 l-40 -5 32 20 c32
20 63 67 63 95 0 16 12 18 245 41 536 53 985 82 1665 109 164 7 937 -3 1080
-14z m-2502 -370 c244 -68 412 -233 412 -404 0 -101 -54 -195 -133 -231 -57
-27 -112 -32 -120 -12 -3 7 6 39 19 72 45 110 22 185 -57 185 -45 0 -49 -12
-24 -93 9 -29 17 -115 21 -212 l6 -164 -28 -8 c-16 -4 -119 -8 -229 -8 -159 0
-216 4 -280 18 -44 11 -83 22 -87 26 -8 7 15 199 38 315 21 104 12 126 -48
126 -56 0 -104 -29 -113 -69 -8 -37 5 -61 61 -115 50 -49 57 -76 19 -76 -65 0
-148 60 -188 135 -18 33 -22 56 -22 140 0 86 3 106 23 144 65 122 229 222 411
251 81 13 235 3 319 -20z m-1168 -364 c25 -8 81 -22 125 -30 111 -22 203 -69
232 -121 40 -70 29 -157 -30 -245 -38 -56 -49 -68 -115 -113 -105 -72 -267
-113 -412 -104 -122 7 -182 39 -209 110 -40 106 35 283 179 421 99 94 142 110
230 82z m-2405 -189 c142 -39 217 -121 217 -237 0 -67 -17 -105 -67 -149 -58
-50 -76 -38 -96 62 -9 49 -16 61 -42 78 -41 24 -78 24 -108 0 l-24 -19 66 -64
c65 -63 136 -152 242 -304 l57 -82 -54 -36 c-128 -85 -291 -159 -419 -189
-134 -33 -117 -39 -165 58 -24 48 -66 143 -93 213 -62 158 -61 156 -90 161
-62 9 -141 -85 -120 -142 13 -32 16 -34 90 -46 60 -10 91 -24 91 -41 0 -15
-64 -30 -129 -30 -114 0 -218 65 -266 166 -21 46 -19 143 5 204 33 84 137 207
226 268 88 60 225 114 347 138 85 16 258 11 332 -9z m-1716 -134 l30 -48 -147
-42 c-81 -23 -148 -43 -149 -43 -4 0 -54 92 -51 95 3 3 266 82 280 84 5 1 21
-20 37 -46z m3210 -190 c-11 -82 -63 -300 -73 -311 -16 -15 -41 17 -44 57 -3
35 -6 41 -21 36 -13 -4 -20 1 -24 15 -5 21 -27 28 -27 8 0 -6 -9 -2 -20 10
-27 28 -27 55 0 47 16 -5 19 -3 13 11 -5 14 -3 15 15 5 19 -10 22 -9 22 10 0
20 1 21 25 5 l25 -16 0 50 c0 27 5 50 10 50 6 0 10 -6 11 -12 0 -7 7 3 14 22
13 34 14 34 21 11 7 -22 9 -20 31 29 13 29 25 51 28 49 2 -3 -1 -37 -6 -76z
m-356 -193 c66 -33 182 -122 198 -151 5 -11 8 -23 5 -28 -11 -16 -74 -41 -107
-41 -30 0 -31 1 -16 18 15 16 14 17 -26 14 l-42 -3 24 19 c18 15 21 21 10 25
-12 5 -12 7 1 16 12 8 5 11 -29 11 -37 0 -42 2 -31 15 10 13 9 15 -11 15 -13
0 -31 4 -38 9 -12 8 -9 12 12 22 l28 12 -31 28 c-31 29 -39 49 -17 49 6 0 38
-13 70 -30z m484 -60 c-3 -11 -1 -20 5 -20 6 0 8 -9 5 -20 -5 -18 -2 -17 26 6
28 23 32 25 35 10 2 -10 9 -16 15 -13 53 20 59 19 52 -2 -6 -19 -4 -21 17 -16
13 3 35 2 48 -3 24 -9 24 -10 -17 -31 -69 -35 -215 -73 -269 -69 -44 3 -49 6
-51 28 -4 49 8 81 35 93 15 6 40 22 55 34 35 28 51 29 44 3z m-4979 -1451
c160 -360 339 -820 327 -839 -21 -34 -65 21 -142 175 -55 110 -110 260 -192
525 -38 124 -74 238 -80 253 -15 38 -14 60 2 55 6 -3 45 -79 85 -169z"/>
<path d="M10145 14078 c-33 -18 -45 -40 -45 -85 l0 -43 47 30 c55 35 109 48
135 31 16 -10 18 -8 18 14 0 49 -100 83 -155 53z"/>
<path d="M8063 13900 c-49 -25 -80 -62 -148 -173 -72 -120 -88 -163 -89 -237
0 -55 5 -74 28 -114 100 -171 410 -167 581 8 67 69 89 124 83 208 -5 85 -38
148 -117 230 -74 75 -103 87 -221 94 -63 4 -82 2 -117 -16z"/>
<path d="M9132 13758 c-52 -25 -109 -94 -154 -186 -30 -61 -33 -76 -36 -172
-1 -58 -3 -134 -4 -170 -2 -86 26 -141 90 -171 67 -33 148 -16 307 63 178 88
233 175 190 297 -21 60 -120 225 -163 274 -39 43 -121 87 -162 87 -14 0 -45
-10 -68 -22z"/>
<path d="M25760 12640 c-162 -64 -416 -168 -565 -232 -148 -64 -472 -201 -720
-303 -636 -264 -790 -329 -1135 -482 -167 -74 -383 -166 -480 -205 -96 -38
-212 -86 -257 -106 -73 -33 -83 -41 -103 -82 -94 -193 -265 -429 -463 -637
l-87 -90 353 -6 c193 -3 364 -9 378 -12 24 -6 31 1 97 103 40 61 92 147 116
192 41 78 46 82 107 111 35 17 150 65 254 106 105 41 309 128 455 193 146 65
384 168 529 230 163 69 291 130 335 160 197 132 451 237 687 285 61 12 179 57
424 161 187 80 350 149 363 154 22 9 22 13 21 162 -1 84 -4 212 -8 283 l-6
131 -295 -116z"/>
<path d="M32160 10095 c-24 -20 -87 -63 -141 -96 -53 -33 -103 -68 -110 -77
-11 -14 -11 -15 1 -4 10 8 54 12 145 12 l132 0 42 -50 c31 -37 49 -50 69 -50
14 0 66 -10 114 -22 49 -11 91 -18 95 -14 4 4 -8 19 -27 33 -56 42 -167 162
-217 236 -26 37 -50 67 -54 67 -4 0 -26 -16 -49 -35z"/>
<path d="M34144 9851 c-76 -38 -193 -88 -258 -111 -156 -53 -217 -87 -308
-168 -107 -95 -163 -164 -194 -241 -31 -72 -54 -112 -92 -153 -69 -75 119 25
253 134 195 158 254 187 451 218 189 30 238 63 249 168 3 31 8 78 11 104 l6
47 91 3 92 3 -47 33 c-68 47 -92 43 -254 -37z"/>
<path d="M31038 9582 c-23 -65 -76 -132 -134 -171 -27 -17 -105 -49 -177 -72
-101 -32 -137 -48 -167 -76 -54 -48 -58 -80 -30 -214 27 -127 24 -194 -14
-314 l-25 -80 41 45 c64 72 109 144 196 315 95 187 158 287 242 379 71 78 112
155 108 199 -5 47 -21 42 -40 -11z"/>
<path d="M31090 9364 c-46 -50 -82 -123 -124 -250 -15 -45 -42 -107 -61 -139
-19 -32 -35 -58 -35 -60 0 -4 224 85 259 103 41 21 71 66 71 108 0 17 -14 76
-31 130 -16 55 -28 111 -26 127 2 15 0 27 -3 27 -4 0 -26 -21 -50 -46z"/>
<path d="M42948 9110 c150 -194 274 -452 337 -699 60 -240 58 -172 62 -1561 4
-1329 2 -1441 -38 -1646 -60 -310 -212 -630 -421 -879 -338 -406 -821 -657
-1352 -705 -87 -8 -5583 -10 -19366 -8 l-19245 4 -110 22 c-345 68 -592 175
-850 365 -73 54 -64 42 115 -135 255 -253 378 -347 606 -461 193 -96 411 -163
632 -192 100 -13 2355 -15 19357 -15 17051 0 19257 2 19358 15 652 85 1223
489 1514 1069 73 145 115 257 153 407 61 244 61 246 57 1714 -4 1458 0 1354
-64 1600 -71 274 -213 545 -399 764 -40 47 -146 158 -235 246 -125 124 -150
145 -111 95z"/>
</g>
</svg>
